<svg width="668" height="463" viewBox="0 0 668 463" fill="none" xmlns="http://www.w3.org/2000/svg">
<g clip-path="url(#clip0_81_6)">
<g filter="url(#filter0_d_81_6)">
<path d="M633 255L375 416.947L375 93.0533L633 255Z" fill="#6ED4C8" fill-opacity="0.15" shape-rendering="crispEdges"/>
<path d="M375.5 93.9574L632.06 255L375.5 416.043L375.5 93.9574Z" stroke="#26AEB7" stroke-opacity="0.5" stroke-linejoin="bevel" shape-rendering="crispEdges"/>
</g>
<g filter="url(#filter1_d_81_6)">
<path d="M56 175L314 13.0533L314 336.947L56 175Z" fill="#6ED4C8" fill-opacity="0.15" shape-rendering="crispEdges"/>
<path d="M313.5 336.043L56.9405 175L313.5 13.9575L313.5 336.043Z" stroke="#26AEB7" stroke-opacity="0.5" stroke-linejoin="bevel" shape-rendering="crispEdges"/>
</g>
<g filter="url(#filter2_d_81_6)">
<path d="M633 238L375 399.947L375 76.0533L633 238Z" fill="#6ED4C8" fill-opacity="0.15" shape-rendering="crispEdges"/>
<path d="M375.5 76.9574L632.06 238L375.5 399.043L375.5 76.9574Z" stroke="#26AEB7" stroke-opacity="0.5" stroke-linejoin="bevel" shape-rendering="crispEdges"/>
</g>
<g filter="url(#filter3_d_81_6)">
<path d="M56 192L314 30.0533L314 353.947L56 192Z" fill="#6ED4C8" fill-opacity="0.15" shape-rendering="crispEdges"/>
<path d="M313.5 353.043L56.9405 192L313.5 30.9575L313.5 353.043Z" stroke="#26AEB7" stroke-opacity="0.5" stroke-linejoin="bevel" shape-rendering="crispEdges"/>
</g>
<g style="mix-blend-mode:darken">
<path d="M453 304.494L225 141" stroke="black"/>
</g>
<g filter="url(#filter4_d_81_6)">
<path d="M249.355 386L251.77 371.455H257.509C258.607 371.455 259.509 371.665 260.214 372.087C260.925 372.503 261.422 373.083 261.706 373.827C261.995 374.565 262.061 375.418 261.905 376.384C261.744 377.354 261.393 378.209 260.854 378.947C260.319 379.681 259.623 380.254 258.766 380.666C257.909 381.078 256.919 381.284 255.797 381.284H252.139L252.544 378.82H255.705C256.301 378.82 256.81 378.718 257.232 378.514C257.658 378.306 257.996 378.019 258.247 377.655C258.498 377.286 258.661 376.862 258.737 376.384C258.818 375.896 258.792 375.472 258.659 375.112C258.527 374.752 258.283 374.473 257.928 374.274C257.577 374.071 257.106 373.969 256.514 373.969H254.44L252.43 386H249.355ZM266.338 379.693L265.287 386H262.269L264.684 371.455H267.617L266.708 377.016H266.828C267.179 376.372 267.659 375.867 268.27 375.503C268.881 375.134 269.603 374.949 270.436 374.949C271.194 374.949 271.826 375.115 272.333 375.446C272.844 375.773 273.206 376.244 273.419 376.859C273.632 377.47 273.668 378.202 273.526 379.054L272.361 386H269.343L270.408 379.594C270.517 378.921 270.429 378.398 270.145 378.024C269.866 377.65 269.421 377.463 268.81 377.463C268.398 377.463 268.019 377.551 267.674 377.726C267.328 377.901 267.037 378.157 266.8 378.493C266.568 378.824 266.414 379.224 266.338 379.693ZM277.81 386.206C277.119 386.206 276.52 386.085 276.013 385.844C275.512 385.598 275.142 385.233 274.906 384.75C274.669 384.267 274.61 383.668 274.728 382.953C274.832 382.347 275.029 381.84 275.317 381.433C275.611 381.021 275.969 380.69 276.39 380.439C276.811 380.188 277.278 379.996 277.789 379.864C278.305 379.731 278.838 379.641 279.387 379.594C280.022 379.527 280.538 379.464 280.935 379.402C281.338 379.34 281.638 379.253 281.837 379.139C282.036 379.021 282.157 378.846 282.2 378.614V378.571C282.271 378.126 282.188 377.78 281.951 377.534C281.719 377.283 281.347 377.158 280.836 377.158C280.296 377.158 279.837 377.276 279.458 377.513C279.084 377.75 278.817 378.05 278.656 378.415L275.9 378.188C276.146 377.525 276.518 376.952 277.015 376.469C277.517 375.981 278.121 375.607 278.826 375.347C279.531 375.081 280.322 374.949 281.198 374.949C281.804 374.949 282.37 375.02 282.896 375.162C283.426 375.304 283.883 375.524 284.266 375.822C284.655 376.121 284.934 376.504 285.104 376.973C285.28 377.437 285.315 377.993 285.211 378.642L283.982 386H281.113L281.369 384.487H281.283C281.051 384.828 280.767 385.129 280.431 385.389C280.095 385.645 279.709 385.846 279.273 385.993C278.838 386.135 278.35 386.206 277.81 386.206ZM279.025 384.118C279.465 384.118 279.87 384.03 280.239 383.855C280.613 383.675 280.921 383.434 281.163 383.131C281.409 382.828 281.565 382.484 281.631 382.101L281.816 380.943C281.721 381.005 281.584 381.059 281.404 381.107C281.229 381.154 281.037 381.199 280.829 381.241C280.625 381.279 280.419 381.315 280.211 381.348C280.003 381.376 279.816 381.405 279.65 381.433C279.285 381.485 278.959 381.568 278.67 381.682C278.381 381.795 278.147 381.949 277.967 382.143C277.787 382.333 277.675 382.57 277.633 382.854C277.567 383.266 277.664 383.58 277.924 383.798C278.189 384.011 278.556 384.118 279.025 384.118ZM286.33 386L288.148 375.091H291.081L290.761 376.994H290.875C291.188 376.317 291.607 375.806 292.132 375.46C292.662 375.11 293.233 374.935 293.844 374.935C293.995 374.935 294.154 374.944 294.32 374.963C294.49 374.977 294.642 375.001 294.774 375.034L294.32 377.726C294.187 377.679 293.998 377.641 293.751 377.612C293.51 377.579 293.28 377.562 293.062 377.562C292.622 377.562 292.213 377.66 291.834 377.854C291.455 378.043 291.135 378.308 290.875 378.649C290.619 378.99 290.451 379.383 290.371 379.828L289.355 386H286.33ZM294.534 386L296.353 375.091H299.229L298.917 377.016H299.037C299.369 376.376 299.83 375.872 300.422 375.503C301.019 375.134 301.689 374.949 302.432 374.949C303.171 374.949 303.772 375.136 304.236 375.51C304.705 375.879 304.975 376.381 305.046 377.016H305.159C305.481 376.391 305.967 375.891 306.615 375.517C307.264 375.138 307.989 374.949 308.789 374.949C309.797 374.949 310.569 375.273 311.104 375.922C311.639 376.571 311.807 377.484 311.608 378.663L310.387 386H307.361L308.498 379.26C308.587 378.649 308.498 378.195 308.228 377.896C307.958 377.593 307.581 377.442 307.098 377.442C306.549 377.442 306.092 377.617 305.728 377.967C305.363 378.313 305.138 378.77 305.053 379.338L303.924 386H300.99L302.141 379.196C302.221 378.656 302.134 378.23 301.878 377.918C301.627 377.6 301.251 377.442 300.749 377.442C300.417 377.442 300.103 377.527 299.804 377.697C299.511 377.863 299.262 378.098 299.059 378.401C298.855 378.699 298.722 379.049 298.661 379.452L297.553 386H294.534ZM315.838 386.206C315.146 386.206 314.547 386.085 314.041 385.844C313.539 385.598 313.17 385.233 312.933 384.75C312.696 384.267 312.637 383.668 312.755 382.953C312.859 382.347 313.056 381.84 313.345 381.433C313.638 381.021 313.996 380.69 314.417 380.439C314.839 380.188 315.305 379.996 315.816 379.864C316.333 379.731 316.865 379.641 317.414 379.594C318.049 379.527 318.565 379.464 318.963 379.402C319.365 379.34 319.666 379.253 319.865 379.139C320.064 379.021 320.184 378.846 320.227 378.614V378.571C320.298 378.126 320.215 377.78 319.978 377.534C319.746 377.283 319.375 377.158 318.863 377.158C318.324 377.158 317.864 377.276 317.485 377.513C317.111 377.75 316.844 378.05 316.683 378.415L313.927 378.188C314.173 377.525 314.545 376.952 315.042 376.469C315.544 375.981 316.148 375.607 316.853 375.347C317.559 375.081 318.35 374.949 319.225 374.949C319.832 374.949 320.397 375.02 320.923 375.162C321.453 375.304 321.91 375.524 322.294 375.822C322.682 376.121 322.961 376.504 323.132 376.973C323.307 377.437 323.342 377.993 323.238 378.642L322.01 386H319.14L319.396 384.487H319.311C319.079 384.828 318.795 385.129 318.458 385.389C318.122 385.645 317.736 385.846 317.301 385.993C316.865 386.135 316.377 386.206 315.838 386.206ZM317.052 384.118C317.493 384.118 317.897 384.03 318.267 383.855C318.641 383.675 318.949 383.434 319.19 383.131C319.436 382.828 319.592 382.484 319.659 382.101L319.843 380.943C319.749 381.005 319.611 381.059 319.431 381.107C319.256 381.154 319.065 381.199 318.856 381.241C318.653 381.279 318.447 381.315 318.238 381.348C318.03 381.376 317.843 381.405 317.677 381.433C317.313 381.485 316.986 381.568 316.697 381.682C316.408 381.795 316.174 381.949 315.994 382.143C315.814 382.333 315.703 382.57 315.66 382.854C315.594 383.266 315.691 383.58 315.951 383.798C316.217 384.011 316.583 384.118 317.052 384.118ZM324.414 386L326.828 371.455H329.904L327.915 383.464H334.151L333.725 386H324.414ZM335.705 386L337.523 375.091H340.548L338.73 386H335.705ZM339.348 373.67C338.898 373.67 338.527 373.521 338.233 373.223C337.944 372.92 337.826 372.56 337.878 372.143C337.93 371.717 338.134 371.357 338.489 371.064C338.844 370.766 339.246 370.616 339.696 370.616C340.146 370.616 340.513 370.766 340.797 371.064C341.081 371.357 341.199 371.717 341.152 372.143C341.105 372.56 340.903 372.92 340.548 373.223C340.198 373.521 339.798 373.67 339.348 373.67ZM345.245 379.693L344.194 386H341.175L342.993 375.091H345.87L345.557 377.016H345.678C346.024 376.376 346.511 375.872 347.141 375.503C347.775 375.134 348.498 374.949 349.307 374.949C350.065 374.949 350.697 375.115 351.203 375.446C351.715 375.777 352.075 376.249 352.283 376.859C352.496 377.47 352.532 378.202 352.39 379.054L351.225 386H348.199L349.272 379.594C349.381 378.926 349.295 378.405 349.016 378.031C348.741 377.652 348.299 377.463 347.688 377.463C347.281 377.463 346.907 377.551 346.566 377.726C346.225 377.901 345.938 378.157 345.706 378.493C345.479 378.824 345.325 379.224 345.245 379.693ZM356.855 382.861L357.459 379.232H357.899L362.097 375.091H365.57L359.973 380.574H359.249L356.855 382.861ZM353.595 386L356.01 371.455H359.036L356.621 386H353.595ZM360.413 386L357.999 381.249L360.364 379.111L363.957 386H360.413Z" fill="#1FBCDE" shape-rendering="crispEdges"/>
<path d="M249.355 386L248.862 385.918L248.765 386.5H249.355V386ZM251.77 371.455V370.955H251.346L251.277 371.373L251.77 371.455ZM260.214 372.087L259.958 372.516L259.961 372.518L260.214 372.087ZM261.706 373.827L261.239 374.005L261.24 374.009L261.706 373.827ZM261.905 376.384L262.398 376.465L262.398 376.463L261.905 376.384ZM260.854 378.947L260.45 378.652L260.45 378.653L260.854 378.947ZM258.766 380.666L258.982 381.117L258.766 380.666ZM252.139 381.284L251.646 381.203L251.55 381.784H252.139V381.284ZM252.544 378.82V378.32H252.119L252.051 378.739L252.544 378.82ZM257.232 378.514L257.449 378.964L257.451 378.963L257.232 378.514ZM258.247 377.655L258.659 377.938L258.661 377.936L258.247 377.655ZM258.737 376.384L258.244 376.302L258.243 376.305L258.737 376.384ZM258.659 375.112L259.128 374.939V374.939L258.659 375.112ZM257.928 374.274L257.676 374.707L257.683 374.71L257.928 374.274ZM254.44 373.969V373.469H254.017L253.947 373.886L254.44 373.969ZM252.43 386V386.5H252.854L252.924 386.082L252.43 386ZM249.848 386.082L252.263 371.536L251.277 371.373L248.862 385.918L249.848 386.082ZM251.77 371.955H257.509V370.955H251.77V371.955ZM257.509 371.955C258.546 371.955 259.352 372.154 259.958 372.516L260.471 371.657C259.666 371.177 258.668 370.955 257.509 370.955V371.955ZM259.961 372.518C260.577 372.879 260.997 373.372 261.239 374.005L262.173 373.648C261.847 372.795 261.272 372.127 260.467 371.655L259.961 372.518ZM261.24 374.009C261.49 374.647 261.557 375.406 261.411 376.304L262.398 376.463C262.566 375.43 262.5 374.484 262.172 373.645L261.24 374.009ZM261.412 376.302C261.262 377.201 260.94 377.982 260.45 378.652L261.257 379.242C261.847 378.436 262.225 377.507 262.398 376.465L261.412 376.302ZM260.45 378.653C259.966 379.317 259.335 379.838 258.549 380.216L258.982 381.117C259.91 380.671 260.672 380.046 261.258 379.242L260.45 378.653ZM258.549 380.216C257.771 380.59 256.857 380.784 255.797 380.784V381.784C256.981 381.784 258.047 381.567 258.982 381.117L258.549 380.216ZM255.797 380.784H252.139V381.784H255.797V380.784ZM252.633 381.365L253.037 378.901L252.051 378.739L251.646 381.203L252.633 381.365ZM252.544 379.32H255.705V378.32H252.544V379.32ZM255.705 379.32C256.356 379.32 256.944 379.209 257.449 378.964L257.014 378.064C256.676 378.227 256.246 378.32 255.705 378.32V379.32ZM257.451 378.963C257.949 378.72 258.356 378.379 258.659 377.938L257.835 377.371C257.637 377.66 257.367 377.892 257.012 378.065L257.451 378.963ZM258.661 377.936C258.956 377.501 259.145 377.006 259.231 376.462L258.243 376.305C258.178 376.717 258.04 377.07 257.834 377.374L258.661 377.936ZM259.231 376.465C259.321 375.916 259.298 375.401 259.128 374.939L258.19 375.285C258.285 375.543 258.314 375.876 258.244 376.302L259.231 376.465ZM259.128 374.939C258.952 374.461 258.624 374.091 258.172 373.838L257.683 374.71C257.941 374.855 258.101 375.044 258.19 375.285L259.128 374.939ZM258.179 373.842C257.725 373.578 257.156 373.469 256.514 373.469V374.469C257.056 374.469 257.43 374.563 257.676 374.706L258.179 373.842ZM256.514 373.469H254.44V374.469H256.514V373.469ZM253.947 373.886L251.937 385.918L252.924 386.082L254.934 374.051L253.947 373.886ZM252.43 385.5H249.355V386.5H252.43V385.5ZM266.338 379.693L266.832 379.775L266.832 379.773L266.338 379.693ZM265.287 386V386.5H265.711L265.78 386.082L265.287 386ZM262.269 386L261.776 385.918L261.679 386.5H262.269V386ZM264.684 371.455V370.955H264.26L264.19 371.373L264.684 371.455ZM267.617 371.455L268.11 371.535L268.205 370.955H267.617V371.455ZM266.708 377.016L266.214 376.935L266.119 377.516H266.708V377.016ZM266.828 377.016V377.516H267.126L267.268 377.255L266.828 377.016ZM268.27 375.503L268.527 375.932L268.529 375.931L268.27 375.503ZM272.333 375.446L272.059 375.864L272.064 375.867L272.333 375.446ZM273.419 376.859L272.947 377.023L272.947 377.024L273.419 376.859ZM273.526 379.054L274.019 379.137L274.019 379.136L273.526 379.054ZM272.361 386V386.5H272.784L272.854 386.083L272.361 386ZM269.343 386L268.849 385.918L268.753 386.5H269.343V386ZM270.408 379.594L270.901 379.676L270.902 379.674L270.408 379.594ZM270.145 378.024L269.745 378.323L269.747 378.327L270.145 378.024ZM267.674 377.726L267.448 377.28L267.674 377.726ZM266.8 378.493L266.391 378.205L266.39 378.206L266.8 378.493ZM265.845 379.611L264.794 385.918L265.78 386.082L266.832 379.775L265.845 379.611ZM265.287 385.5H262.269V386.5H265.287V385.5ZM262.762 386.082L265.177 371.536L264.19 371.373L261.776 385.918L262.762 386.082ZM264.684 371.955H267.617V370.955H264.684V371.955ZM267.123 371.374L266.214 376.935L267.201 377.096L268.11 371.535L267.123 371.374ZM266.708 377.516H266.828V376.516H266.708V377.516ZM267.268 377.255C267.577 376.687 267.995 376.249 268.527 375.932L268.014 375.074C267.324 375.485 266.781 376.057 266.389 376.777L267.268 377.255ZM268.529 375.931C269.049 375.616 269.679 375.449 270.436 375.449V374.449C269.527 374.449 268.713 374.651 268.012 375.075L268.529 375.931ZM270.436 375.449C271.121 375.449 271.652 375.598 272.059 375.864L272.606 375.028C272 374.631 271.267 374.449 270.436 374.449V375.449ZM272.064 375.867C272.473 376.129 272.768 376.505 272.947 377.023L273.892 376.696C273.645 375.982 273.215 375.417 272.602 375.025L272.064 375.867ZM272.947 377.024C273.125 377.533 273.165 378.176 273.033 378.972L274.019 379.136C274.171 378.228 274.14 377.407 273.891 376.695L272.947 377.024ZM273.033 378.971L271.868 385.917L272.854 386.083L274.019 379.137L273.033 378.971ZM272.361 385.5H269.343V386.5H272.361V385.5ZM269.836 386.082L270.901 379.676L269.915 379.512L268.849 385.918L269.836 386.082ZM270.902 379.674C271.022 378.928 270.942 378.246 270.543 377.722L269.747 378.327C269.917 378.55 270.011 378.915 269.914 379.514L270.902 379.674ZM270.546 377.725C270.144 377.187 269.525 376.963 268.81 376.963V377.963C269.316 377.963 269.587 378.113 269.745 378.323L270.546 377.725ZM268.81 376.963C268.325 376.963 267.868 377.067 267.448 377.28L267.9 378.172C268.171 378.034 268.472 377.963 268.81 377.963V376.963ZM267.448 377.28C267.025 377.494 266.672 377.806 266.391 378.205L267.209 378.781C267.402 378.507 267.631 378.308 267.9 378.172L267.448 377.28ZM266.39 378.206C266.108 378.609 265.931 379.083 265.845 379.613L266.832 379.773C266.898 379.366 267.028 379.039 267.21 378.78L266.39 378.206ZM276.013 385.844L275.793 386.293L275.798 386.295L276.013 385.844ZM274.906 384.75L274.457 384.97L274.906 384.75ZM274.728 382.953L274.235 382.868L274.235 382.871L274.728 382.953ZM275.317 381.433L274.91 381.143L274.91 381.144L275.317 381.433ZM276.39 380.439L276.134 380.009V380.009L276.39 380.439ZM277.789 379.864L277.665 379.379L277.664 379.38L277.789 379.864ZM279.387 379.594L279.43 380.092L279.439 380.091L279.387 379.594ZM280.935 379.402L280.86 378.908L280.859 378.908L280.935 379.402ZM281.837 379.139L282.085 379.573L282.093 379.569L281.837 379.139ZM282.2 378.614L282.691 378.704L282.7 378.659V378.614H282.2ZM282.2 378.571L281.706 378.492L281.7 378.531V378.571H282.2ZM281.951 377.534L281.584 377.874L281.591 377.881L281.951 377.534ZM279.458 377.513L279.193 377.089L279.191 377.09L279.458 377.513ZM278.656 378.415L278.614 378.913L278.969 378.942L279.113 378.617L278.656 378.415ZM275.9 378.188L275.431 378.013L275.202 378.632L275.859 378.686L275.9 378.188ZM277.015 376.469L277.363 376.827L277.363 376.827L277.015 376.469ZM278.826 375.347L278.999 375.816L279.002 375.815L278.826 375.347ZM282.896 375.162L282.765 375.645L282.766 375.645L282.896 375.162ZM284.266 375.822L283.959 376.217L283.962 376.219L284.266 375.822ZM285.104 376.973L284.634 377.144L284.637 377.15L285.104 376.973ZM285.211 378.642L285.704 378.724L285.705 378.721L285.211 378.642ZM283.982 386V386.5H284.406L284.475 386.082L283.982 386ZM281.113 386L280.62 385.917L280.521 386.5H281.113V386ZM281.369 384.487L281.862 384.571L281.96 383.987H281.369V384.487ZM281.283 384.487V383.987H281.019L280.87 384.206L281.283 384.487ZM280.431 385.389L280.734 385.787L280.737 385.784L280.431 385.389ZM279.273 385.993L279.428 386.468L279.433 386.467L279.273 385.993ZM280.239 383.855L280.454 384.307L280.456 384.306L280.239 383.855ZM281.163 383.131L280.775 382.815L280.772 382.819L281.163 383.131ZM281.631 382.101L282.124 382.186L282.125 382.18L281.631 382.101ZM281.816 380.943L282.31 381.022L282.487 379.911L281.544 380.524L281.816 380.943ZM281.404 381.107L281.277 380.623L281.274 380.624L281.404 381.107ZM280.829 381.241L280.92 381.733L280.929 381.731L280.829 381.241ZM280.211 381.348L280.279 381.844L280.289 381.842L280.211 381.348ZM279.65 381.433L279.721 381.928L279.734 381.926L279.65 381.433ZM278.67 381.682L278.853 382.147L278.67 381.682ZM277.967 382.143L278.329 382.488L278.333 382.483L277.967 382.143ZM277.633 382.854L278.126 382.933L278.127 382.928L277.633 382.854ZM277.924 383.798L277.603 384.182L277.611 384.188L277.924 383.798ZM277.81 385.706C277.177 385.706 276.654 385.595 276.229 385.392L275.798 386.295C276.386 386.575 277.062 386.706 277.81 386.706V385.706ZM276.234 385.395C275.827 385.195 275.54 384.909 275.354 384.53L274.457 384.97C274.744 385.557 275.196 386 275.793 386.293L276.234 385.395ZM275.354 384.53C275.177 384.168 275.114 383.682 275.221 383.035L274.235 382.871C274.105 383.654 274.16 384.366 274.457 384.97L275.354 384.53ZM275.221 383.038C275.315 382.489 275.489 382.056 275.725 381.723L274.91 381.144C274.569 381.625 274.349 382.205 274.235 382.868L275.221 383.038ZM275.725 381.723C275.979 381.366 276.286 381.083 276.646 380.869L276.134 380.009C275.651 380.297 275.243 380.676 274.91 381.143L275.725 381.723ZM276.646 380.869C277.023 380.644 277.445 380.469 277.915 380.348L277.664 379.38C277.11 379.523 276.599 379.732 276.134 380.009L276.646 380.869ZM277.913 380.348C278.402 380.222 278.907 380.137 279.43 380.092L279.344 379.096C278.768 379.145 278.208 379.24 277.665 379.379L277.913 380.348ZM279.439 380.091C280.078 380.024 280.603 379.959 281.012 379.896L280.859 378.908C280.473 378.968 279.966 379.031 279.335 379.096L279.439 380.091ZM281.011 379.896C281.434 379.831 281.807 379.732 282.085 379.573L281.589 378.705C281.47 378.773 281.241 378.849 280.86 378.908L281.011 379.896ZM282.093 379.569C282.419 379.375 282.623 379.075 282.691 378.704L281.708 378.523C281.691 378.617 281.654 378.667 281.582 378.71L282.093 379.569ZM282.7 378.614V378.571H281.7V378.614H282.7ZM282.693 378.65C282.78 378.104 282.69 377.581 282.311 377.188L281.591 377.881C281.686 377.98 281.761 378.148 281.706 378.492L282.693 378.65ZM282.318 377.195C281.953 376.8 281.417 376.658 280.836 376.658V377.658C281.277 377.658 281.485 377.767 281.584 377.874L282.318 377.195ZM280.836 376.658C280.222 376.658 279.667 376.793 279.193 377.089L279.723 377.937C280.007 377.759 280.37 377.658 280.836 377.658V376.658ZM279.191 377.09C278.742 377.374 278.404 377.748 278.198 378.213L279.113 378.617C279.229 378.353 279.426 378.125 279.725 377.935L279.191 377.09ZM278.697 377.916L275.941 377.689L275.859 378.686L278.614 378.913L278.697 377.916ZM276.369 378.362C276.589 377.767 276.921 377.257 277.363 376.827L276.667 376.11C276.115 376.646 275.703 377.282 275.431 378.013L276.369 378.362ZM277.363 376.827C277.812 376.392 278.354 376.054 278.999 375.816L278.653 374.878C277.887 375.16 277.222 375.57 276.666 376.11L277.363 376.827ZM279.002 375.815C279.643 375.574 280.373 375.449 281.198 375.449V374.449C280.272 374.449 279.42 374.589 278.65 374.879L279.002 375.815ZM281.198 375.449C281.765 375.449 282.287 375.515 282.765 375.645L283.026 374.679C282.453 374.524 281.843 374.449 281.198 374.449V375.449ZM282.766 375.645C283.24 375.772 283.635 375.965 283.959 376.217L284.573 375.428C284.131 375.083 283.611 374.836 283.025 374.679L282.766 375.645ZM283.962 376.219C284.273 376.458 284.496 376.763 284.635 377.144L285.574 376.802C285.372 376.246 285.036 375.783 284.571 375.426L283.962 376.219ZM284.637 377.15C284.773 377.51 284.812 377.973 284.717 378.563L285.705 378.721C285.818 378.014 285.787 377.364 285.572 376.796L284.637 377.15ZM284.718 378.56L283.489 385.918L284.475 386.082L285.704 378.724L284.718 378.56ZM283.982 385.5H281.113V386.5H283.982V385.5ZM281.606 386.083L281.862 384.571L280.876 384.404L280.62 385.917L281.606 386.083ZM281.369 383.987H281.283V384.987H281.369V383.987ZM280.87 384.206C280.668 384.502 280.421 384.765 280.125 384.994L280.737 385.784C281.114 385.493 281.434 385.154 281.697 384.769L280.87 384.206ZM280.128 384.991C279.839 385.211 279.502 385.388 279.114 385.519L279.433 386.467C279.916 386.304 280.351 386.079 280.734 385.787L280.128 384.991ZM279.118 385.518C278.741 385.641 278.307 385.706 277.81 385.706V386.706C278.394 386.706 278.935 386.629 279.428 386.468L279.118 385.518ZM279.025 384.618C279.533 384.618 280.012 384.516 280.454 384.307L280.025 383.403C279.728 383.544 279.397 383.618 279.025 383.618V384.618ZM280.456 384.306C280.893 384.096 281.262 383.808 281.554 383.442L280.772 382.819C280.58 383.059 280.334 383.255 280.023 383.405L280.456 384.306ZM281.551 383.446C281.851 383.077 282.043 382.654 282.124 382.186L281.139 382.016C281.087 382.315 280.967 382.579 280.775 382.815L281.551 383.446ZM282.125 382.18L282.31 381.022L281.322 380.864L281.138 382.022L282.125 382.18ZM281.544 380.524C281.513 380.544 281.434 380.582 281.277 380.623L281.531 381.59C281.734 381.537 281.93 381.466 282.089 381.362L281.544 380.524ZM281.274 380.624C281.11 380.668 280.928 380.711 280.729 380.752L280.929 381.731C281.146 381.687 281.348 381.64 281.535 381.589L281.274 380.624ZM280.737 380.75C280.538 380.787 280.336 380.822 280.132 380.854L280.289 381.842C280.502 381.808 280.712 381.772 280.92 381.733L280.737 380.75ZM280.143 380.853C279.931 380.882 279.738 380.911 279.565 380.94L279.734 381.926C279.893 381.899 280.074 381.871 280.278 381.843L280.143 380.853ZM279.579 380.938C279.183 380.995 278.818 381.086 278.487 381.217L278.853 382.147C279.099 382.05 279.388 381.976 279.721 381.928L279.579 380.938ZM278.487 381.217C278.14 381.353 277.839 381.546 277.6 381.804L278.333 382.483C278.454 382.353 278.622 382.238 278.853 382.147L278.487 381.217ZM277.604 381.799C277.346 382.07 277.195 382.405 277.138 382.78L278.127 382.928C278.156 382.735 278.227 382.595 278.329 382.488L277.604 381.799ZM277.139 382.774C277.052 383.314 277.175 383.824 277.603 384.182L278.245 383.415C278.152 383.337 278.081 383.217 278.126 382.933L277.139 382.774ZM277.611 384.188C277.993 384.495 278.485 384.618 279.025 384.618V383.618C278.627 383.618 278.385 383.527 278.237 383.409L277.611 384.188ZM286.33 386L285.836 385.918L285.739 386.5H286.33V386ZM288.148 375.091V374.591H287.724L287.655 375.009L288.148 375.091ZM291.081 375.091L291.574 375.174L291.672 374.591H291.081V375.091ZM290.761 376.994L290.268 376.912L290.17 377.494H290.761V376.994ZM290.875 376.994V377.494H291.195L291.329 377.204L290.875 376.994ZM292.132 375.46L292.407 375.878L292.408 375.877L292.132 375.46ZM294.32 374.963L294.263 375.46L294.27 375.461L294.278 375.461L294.32 374.963ZM294.774 375.034L295.267 375.117L295.344 374.661L294.895 374.549L294.774 375.034ZM294.32 377.726L294.151 378.197L294.713 378.397L294.813 377.809L294.32 377.726ZM293.751 377.612L293.683 378.108L293.694 378.109L293.751 377.612ZM291.834 377.854L292.057 378.301L292.062 378.299L291.834 377.854ZM290.875 378.649L290.478 378.346L290.475 378.349L290.875 378.649ZM290.371 379.828L289.879 379.739L289.877 379.747L290.371 379.828ZM289.355 386V386.5H289.78L289.848 386.081L289.355 386ZM286.823 386.082L288.641 375.173L287.655 375.009L285.836 385.918L286.823 386.082ZM288.148 375.591H291.081V374.591H288.148V375.591ZM290.588 375.008L290.268 376.912L291.254 377.077L291.574 375.174L290.588 375.008ZM290.761 377.494H290.875V376.494H290.761V377.494ZM291.329 377.204C291.61 376.596 291.973 376.163 292.407 375.878L291.857 375.042C291.24 375.448 290.765 376.039 290.421 376.785L291.329 377.204ZM292.408 375.877C292.86 375.579 293.335 375.435 293.844 375.435V374.435C293.131 374.435 292.465 374.641 291.856 375.043L292.408 375.877ZM293.844 375.435C293.975 375.435 294.114 375.443 294.263 375.46L294.376 374.466C294.194 374.445 294.016 374.435 293.844 374.435V375.435ZM294.278 375.461C294.428 375.474 294.552 375.494 294.653 375.519L294.895 374.549C294.731 374.508 294.552 374.481 294.361 374.465L294.278 375.461ZM294.281 374.951L293.827 377.643L294.813 377.809L295.267 375.117L294.281 374.951ZM294.488 377.255C294.302 377.189 294.069 377.146 293.809 377.116L293.694 378.109C293.926 378.136 294.072 378.168 294.151 378.197L294.488 377.255ZM293.819 377.117C293.558 377.081 293.306 377.062 293.062 377.062V378.062C293.255 378.062 293.462 378.077 293.683 378.108L293.819 377.117ZM293.062 377.062C292.546 377.062 292.058 377.177 291.606 377.409L292.062 378.299C292.368 378.142 292.699 378.062 293.062 378.062V377.062ZM291.61 377.406C291.162 377.63 290.784 377.945 290.478 378.346L291.272 378.953C291.487 378.671 291.748 378.456 292.057 378.301L291.61 377.406ZM290.475 378.349C290.17 378.756 289.972 379.222 289.879 379.739L290.863 379.917C290.93 379.544 291.069 379.224 291.275 378.949L290.475 378.349ZM289.877 379.747L288.862 385.919L289.848 386.081L290.864 379.909L289.877 379.747ZM289.355 385.5H286.33V386.5H289.355V385.5ZM294.534 386L294.041 385.918L293.944 386.5H294.534V386ZM296.353 375.091V374.591H295.929L295.859 375.009L296.353 375.091ZM299.229 375.091L299.723 375.171L299.817 374.591H299.229V375.091ZM298.917 377.016L298.423 376.935L298.329 377.516H298.917V377.016ZM299.037 377.016V377.516H299.341L299.481 377.246L299.037 377.016ZM300.422 375.503L300.159 375.078L300.158 375.079L300.422 375.503ZM304.236 375.51L303.922 375.899L303.927 375.903L304.236 375.51ZM305.046 377.016L304.549 377.071L304.599 377.516H305.046V377.016ZM305.159 377.016V377.516H305.464L305.604 377.245L305.159 377.016ZM306.615 375.517L306.865 375.95L306.868 375.949L306.615 375.517ZM311.104 375.922L310.718 376.24L311.104 375.922ZM311.608 378.663L311.115 378.58L311.115 378.581L311.608 378.663ZM310.387 386V386.5H310.81L310.88 386.082L310.387 386ZM307.361 386L306.868 385.917L306.77 386.5H307.361V386ZM308.498 379.26L308.991 379.343L308.992 379.333L308.498 379.26ZM308.228 377.896L307.854 378.229L307.857 378.232L308.228 377.896ZM305.728 377.967L306.072 378.33L306.074 378.328L305.728 377.967ZM305.053 379.338L305.546 379.422L305.547 379.412L305.053 379.338ZM303.924 386V386.5H304.346L304.417 386.084L303.924 386ZM300.99 386L300.497 385.917L300.399 386.5H300.99V386ZM302.141 379.196L302.634 379.279L302.636 379.27L302.141 379.196ZM301.878 377.918L301.486 378.228L301.491 378.234L301.878 377.918ZM299.804 377.697L300.05 378.133L300.052 378.132L299.804 377.697ZM299.059 378.401L299.472 378.682L299.474 378.679L299.059 378.401ZM298.661 379.452L299.154 379.535L299.155 379.527L298.661 379.452ZM297.553 386V386.5H297.975L298.046 386.083L297.553 386ZM295.028 386.082L296.846 375.173L295.859 375.009L294.041 385.918L295.028 386.082ZM296.353 375.591H299.229V374.591H296.353V375.591ZM298.736 375.011L298.423 376.935L299.41 377.096L299.723 375.171L298.736 375.011ZM298.917 377.516H299.037V376.516H298.917V377.516ZM299.481 377.246C299.773 376.683 300.174 376.247 300.687 375.927L300.158 375.079C299.487 375.497 298.965 376.069 298.593 376.785L299.481 377.246ZM300.685 375.928C301.198 375.611 301.776 375.449 302.432 375.449V374.449C301.602 374.449 300.839 374.656 300.159 375.078L300.685 375.928ZM302.432 375.449C303.085 375.449 303.567 375.613 303.922 375.899L304.55 375.121C303.977 374.659 303.257 374.449 302.432 374.449V375.449ZM303.927 375.903C304.283 376.183 304.492 376.559 304.549 377.071L305.543 376.96C305.458 376.203 305.127 375.575 304.546 375.117L303.927 375.903ZM305.046 377.516H305.159V376.516H305.046V377.516ZM305.604 377.245C305.879 376.711 306.294 376.28 306.865 375.95L306.366 375.084C305.639 375.503 305.084 376.071 304.715 376.787L305.604 377.245ZM306.868 375.949C307.435 375.618 308.071 375.449 308.789 375.449V374.449C307.906 374.449 307.093 374.659 306.363 375.085L306.868 375.949ZM308.789 375.449C309.681 375.449 310.297 375.73 310.718 376.24L311.49 375.604C310.841 374.817 309.914 374.449 308.789 374.449V375.449ZM310.718 376.24C311.127 376.736 311.301 377.482 311.115 378.58L312.101 378.747C312.314 377.487 312.151 376.405 311.49 375.604L310.718 376.24ZM311.115 378.581L309.894 385.918L310.88 386.082L312.102 378.745L311.115 378.581ZM310.387 385.5H307.361V386.5H310.387V385.5ZM307.854 386.083L308.991 379.343L308.004 379.177L306.868 385.917L307.854 386.083ZM308.992 379.333C309.092 378.654 309.012 378.018 308.598 377.561L307.857 378.232C307.983 378.371 308.083 378.644 308.003 379.187L308.992 379.333ZM308.601 377.564C308.218 377.134 307.694 376.942 307.098 376.942V377.942C307.468 377.942 307.697 378.053 307.854 378.229L308.601 377.564ZM307.098 376.942C306.432 376.942 305.847 377.159 305.381 377.607L306.074 378.328C306.337 378.075 306.666 377.942 307.098 377.942V376.942ZM305.384 377.604C304.927 378.038 304.658 378.602 304.558 379.264L305.547 379.412C305.619 378.938 305.799 378.588 306.072 378.33L305.384 377.604ZM304.56 379.255L303.431 385.916L304.417 386.084L305.546 379.422L304.56 379.255ZM303.924 385.5H300.99V386.5H303.924V385.5ZM301.483 386.083L302.634 379.279L301.648 379.113L300.497 385.917L301.483 386.083ZM302.636 379.27C302.729 378.642 302.638 378.057 302.265 377.601L301.491 378.234C301.629 378.403 301.714 378.671 301.646 379.122L302.636 379.27ZM302.27 377.607C301.902 377.142 301.363 376.942 300.749 376.942V377.942C301.139 377.942 301.353 378.059 301.486 378.228L302.27 377.607ZM300.749 376.942C300.327 376.942 299.927 377.051 299.556 377.263L300.052 378.132C300.278 378.003 300.508 377.942 300.749 377.942V376.942ZM299.559 377.262C299.192 377.469 298.887 377.76 298.644 378.122L299.474 378.679C299.637 378.436 299.83 378.257 300.05 378.133L299.559 377.262ZM298.646 378.119C298.395 378.486 298.238 378.909 298.167 379.376L299.155 379.527C299.207 379.189 299.315 378.911 299.472 378.682L298.646 378.119ZM298.168 379.368L297.06 385.917L298.046 386.083L299.154 379.535L298.168 379.368ZM297.553 385.5H294.534V386.5H297.553V385.5ZM314.041 385.844L313.821 386.293L313.826 386.295L314.041 385.844ZM312.933 384.75L312.484 384.97L312.933 384.75ZM312.755 382.953L312.263 382.868L312.262 382.871L312.755 382.953ZM313.345 381.433L312.938 381.143L312.937 381.144L313.345 381.433ZM314.417 380.439L314.161 380.009V380.009L314.417 380.439ZM315.816 379.864L315.692 379.379L315.691 379.38L315.816 379.864ZM317.414 379.594L317.457 380.092L317.466 380.091L317.414 379.594ZM318.963 379.402L318.887 378.908L318.886 378.908L318.963 379.402ZM319.865 379.139L320.113 379.573L320.12 379.569L319.865 379.139ZM320.227 378.614L320.719 378.704L320.727 378.659V378.614H320.227ZM320.227 378.571L319.733 378.492L319.727 378.531V378.571H320.227ZM319.978 377.534L319.611 377.874L319.618 377.881L319.978 377.534ZM317.485 377.513L317.22 377.089L317.218 377.09L317.485 377.513ZM316.683 378.415L316.642 378.913L316.997 378.942L317.14 378.617L316.683 378.415ZM313.927 378.188L313.458 378.013L313.229 378.632L313.886 378.686L313.927 378.188ZM315.042 376.469L315.391 376.827L315.391 376.827L315.042 376.469ZM316.853 375.347L317.026 375.816L317.029 375.815L316.853 375.347ZM320.923 375.162L320.792 375.645L320.794 375.645L320.923 375.162ZM322.294 375.822L321.987 376.217L321.989 376.219L322.294 375.822ZM323.132 376.973L322.662 377.144L322.664 377.15L323.132 376.973ZM323.238 378.642L323.731 378.724L323.732 378.721L323.238 378.642ZM322.01 386V386.5H322.433L322.503 386.082L322.01 386ZM319.14 386L318.647 385.917L318.549 386.5H319.14V386ZM319.396 384.487L319.889 384.571L319.988 383.987H319.396V384.487ZM319.311 384.487V383.987H319.046L318.897 384.206L319.311 384.487ZM318.458 385.389L318.761 385.787L318.765 385.784L318.458 385.389ZM317.301 385.993L317.456 386.468L317.46 386.467L317.301 385.993ZM318.267 383.855L318.481 384.307L318.483 384.306L318.267 383.855ZM319.19 383.131L318.802 382.815L318.799 382.819L319.19 383.131ZM319.659 382.101L320.151 382.186L320.152 382.18L319.659 382.101ZM319.843 380.943L320.337 381.022L320.514 379.911L319.571 380.524L319.843 380.943ZM319.431 381.107L319.304 380.623L319.301 380.624L319.431 381.107ZM318.856 381.241L318.948 381.733L318.956 381.731L318.856 381.241ZM318.238 381.348L318.306 381.844L318.317 381.842L318.238 381.348ZM317.677 381.433L317.748 381.928L317.762 381.926L317.677 381.433ZM316.697 381.682L316.88 382.147L316.697 381.682ZM315.994 382.143L316.356 382.488L316.361 382.483L315.994 382.143ZM315.66 382.854L316.154 382.933L316.155 382.928L315.66 382.854ZM315.951 383.798L315.631 384.182L315.638 384.188L315.951 383.798ZM315.838 385.706C315.204 385.706 314.682 385.595 314.256 385.392L313.826 386.295C314.413 386.575 315.089 386.706 315.838 386.706V385.706ZM314.261 385.395C313.854 385.195 313.568 384.909 313.382 384.53L312.484 384.97C312.771 385.557 313.223 386 313.821 386.293L314.261 385.395ZM313.382 384.53C313.204 384.168 313.141 383.682 313.249 383.035L312.262 382.871C312.132 383.654 312.188 384.366 312.484 384.97L313.382 384.53ZM313.248 383.038C313.342 382.489 313.516 382.056 313.753 381.723L312.937 381.144C312.596 381.625 312.377 382.205 312.263 382.868L313.248 383.038ZM313.752 381.723C314.007 381.366 314.313 381.083 314.673 380.869L314.161 380.009C313.679 380.297 313.27 380.676 312.938 381.143L313.752 381.723ZM314.673 380.869C315.051 380.644 315.473 380.469 315.942 380.348L315.691 379.38C315.137 379.523 314.626 379.732 314.161 380.009L314.673 380.869ZM315.941 380.348C316.429 380.222 316.935 380.137 317.457 380.092L317.371 379.096C316.796 379.145 316.236 379.24 315.692 379.379L315.941 380.348ZM317.466 380.091C318.105 380.024 318.63 379.959 319.039 379.896L318.886 378.908C318.5 378.968 317.993 379.031 317.362 379.096L317.466 380.091ZM319.038 379.896C319.462 379.831 319.834 379.732 320.113 379.573L319.617 378.705C319.497 378.773 319.269 378.849 318.887 378.908L319.038 379.896ZM320.12 379.569C320.446 379.375 320.651 379.075 320.719 378.704L319.735 378.523C319.718 378.617 319.681 378.667 319.609 378.71L320.12 379.569ZM320.727 378.614V378.571H319.727V378.614H320.727ZM320.721 378.65C320.808 378.104 320.717 377.581 320.339 377.188L319.618 377.881C319.713 377.98 319.788 378.148 319.733 378.492L320.721 378.65ZM320.345 377.195C319.98 376.8 319.445 376.658 318.863 376.658V377.658C319.305 377.658 319.512 377.767 319.611 377.874L320.345 377.195ZM318.863 376.658C318.249 376.658 317.694 376.793 317.22 377.089L317.75 377.937C318.035 377.759 318.398 377.658 318.863 377.658V376.658ZM317.218 377.09C316.77 377.374 316.431 377.748 316.225 378.213L317.14 378.617C317.257 378.353 317.453 378.125 317.753 377.935L317.218 377.09ZM316.724 377.916L313.968 377.689L313.886 378.686L316.642 378.913L316.724 377.916ZM314.396 378.362C314.617 377.767 314.948 377.257 315.391 376.827L314.694 376.11C314.142 376.646 313.73 377.282 313.458 378.013L314.396 378.362ZM315.391 376.827C315.839 376.392 316.382 376.054 317.026 375.816L316.68 374.878C315.914 375.16 315.249 375.57 314.694 376.11L315.391 376.827ZM317.029 375.815C317.67 375.574 318.4 375.449 319.225 375.449V374.449C318.299 374.449 317.447 374.589 316.677 374.879L317.029 375.815ZM319.225 375.449C319.792 375.449 320.314 375.515 320.792 375.645L321.053 374.679C320.481 374.524 319.871 374.449 319.225 374.449V375.449ZM320.794 375.645C321.268 375.772 321.662 375.965 321.987 376.217L322.601 375.428C322.158 375.083 321.639 374.836 321.052 374.679L320.794 375.645ZM321.989 376.219C322.3 376.458 322.523 376.763 322.662 377.144L323.602 376.802C323.399 376.246 323.063 375.783 322.598 375.426L321.989 376.219ZM322.664 377.15C322.8 377.51 322.839 377.973 322.745 378.563L323.732 378.721C323.846 378.014 323.814 377.364 323.6 376.796L322.664 377.15ZM322.745 378.56L321.516 385.918L322.503 386.082L323.731 378.724L322.745 378.56ZM322.01 385.5H319.14V386.5H322.01V385.5ZM319.633 386.083L319.889 384.571L318.903 384.404L318.647 385.917L319.633 386.083ZM319.396 383.987H319.311V384.987H319.396V383.987ZM318.897 384.206C318.696 384.502 318.448 384.765 318.152 384.994L318.765 385.784C319.141 385.493 319.462 385.154 319.724 384.769L318.897 384.206ZM318.156 384.991C317.866 385.211 317.53 385.388 317.141 385.519L317.46 386.467C317.943 386.304 318.378 386.079 318.761 385.787L318.156 384.991ZM317.146 385.518C316.768 385.641 316.334 385.706 315.838 385.706V386.706C316.421 386.706 316.962 386.629 317.456 386.468L317.146 385.518ZM317.052 384.618C317.561 384.618 318.04 384.516 318.481 384.307L318.052 383.403C317.755 383.544 317.424 383.618 317.052 383.618V384.618ZM318.483 384.306C318.92 384.096 319.289 383.808 319.581 383.442L318.799 382.819C318.608 383.059 318.361 383.255 318.05 383.405L318.483 384.306ZM319.578 383.446C319.878 383.077 320.071 382.654 320.151 382.186L319.166 382.016C319.114 382.315 318.994 382.579 318.802 382.815L319.578 383.446ZM320.152 382.18L320.337 381.022L319.35 380.864L319.165 382.022L320.152 382.18ZM319.571 380.524C319.54 380.544 319.461 380.582 319.304 380.623L319.559 381.59C319.761 381.537 319.957 381.466 320.116 381.362L319.571 380.524ZM319.301 380.624C319.137 380.668 318.956 380.711 318.756 380.752L318.956 381.731C319.173 381.687 319.375 381.64 319.562 381.589L319.301 380.624ZM318.765 380.75C318.565 380.787 318.364 380.822 318.16 380.854L318.317 381.842C318.529 381.808 318.74 381.772 318.948 381.733L318.765 380.75ZM318.171 380.853C317.958 380.882 317.765 380.911 317.593 380.94L317.762 381.926C317.921 381.899 318.102 381.871 318.306 381.843L318.171 380.853ZM317.606 380.938C317.21 380.995 316.845 381.086 316.514 381.217L316.88 382.147C317.127 382.05 317.415 381.976 317.748 381.928L317.606 380.938ZM316.514 381.217C316.167 381.353 315.866 381.546 315.627 381.804L316.361 382.483C316.481 382.353 316.649 382.238 316.88 382.147L316.514 381.217ZM315.631 381.799C315.374 382.07 315.222 382.405 315.166 382.78L316.155 382.928C316.184 382.735 316.254 382.595 316.356 382.488L315.631 381.799ZM315.167 382.774C315.08 383.314 315.202 383.824 315.631 384.182L316.272 383.415C316.179 383.337 316.108 383.217 316.154 382.933L315.167 382.774ZM315.638 384.188C316.02 384.495 316.512 384.618 317.052 384.618V383.618C316.655 383.618 316.413 383.527 316.265 383.409L315.638 384.188ZM324.414 386L323.92 385.918L323.824 386.5H324.414V386ZM326.828 371.455V370.955H326.405L326.335 371.373L326.828 371.455ZM329.904 371.455L330.397 371.536L330.493 370.955H329.904V371.455ZM327.915 383.464L327.422 383.383L327.326 383.964H327.915V383.464ZM334.151 383.464L334.644 383.547L334.742 382.964H334.151V383.464ZM333.725 386V386.5H334.148L334.218 386.083L333.725 386ZM324.907 386.082L327.322 371.536L326.335 371.373L323.92 385.918L324.907 386.082ZM326.828 371.955H329.904V370.955H326.828V371.955ZM329.41 371.373L327.422 383.383L328.408 383.546L330.397 371.536L329.41 371.373ZM327.915 383.964H334.151V382.964H327.915V383.964ZM333.658 383.382L333.232 385.917L334.218 386.083L334.644 383.547L333.658 383.382ZM333.725 385.5H324.414V386.5H333.725V385.5ZM335.705 386L335.211 385.918L335.114 386.5H335.705V386ZM337.523 375.091V374.591H337.099L337.03 375.009L337.523 375.091ZM340.548 375.091L341.041 375.173L341.139 374.591H340.548V375.091ZM338.73 386V386.5H339.154L339.223 386.082L338.73 386ZM338.233 373.223L337.871 373.568L337.877 373.574L338.233 373.223ZM337.878 372.143L338.374 372.205L338.374 372.204L337.878 372.143ZM338.489 371.064L338.807 371.449L338.81 371.447L338.489 371.064ZM340.797 371.064L340.435 371.409L340.438 371.412L340.797 371.064ZM341.152 372.143L341.649 372.2L341.649 372.199L341.152 372.143ZM340.548 373.223L340.872 373.604L340.873 373.603L340.548 373.223ZM336.198 386.082L338.016 375.173L337.03 375.009L335.211 385.918L336.198 386.082ZM337.523 375.591H340.548V374.591H337.523V375.591ZM340.055 375.009L338.237 385.918L339.223 386.082L341.041 375.173L340.055 375.009ZM338.73 385.5H335.705V386.5H338.73V385.5ZM339.348 373.17C339.021 373.17 338.781 373.067 338.589 372.872L337.877 373.574C338.272 373.975 338.775 374.17 339.348 374.17V373.17ZM338.595 372.878C338.41 372.684 338.34 372.474 338.374 372.205L337.382 372.081C337.311 372.647 337.478 373.156 337.871 373.568L338.595 372.878ZM338.374 372.204C338.41 371.915 338.543 371.668 338.807 371.449L338.17 370.679C337.724 371.047 337.45 371.52 337.382 372.083L338.374 372.204ZM338.81 371.447C339.078 371.222 339.368 371.116 339.696 371.116V370.116C339.125 370.116 338.609 370.31 338.167 370.681L338.81 371.447ZM339.696 371.116C340.023 371.116 340.254 371.219 340.435 371.409L341.159 370.719C340.771 370.312 340.269 370.116 339.696 370.116V371.116ZM340.438 371.412C340.612 371.592 340.687 371.802 340.655 372.088L341.649 372.199C341.712 371.633 341.55 371.123 341.156 370.716L340.438 371.412ZM340.655 372.087C340.624 372.363 340.494 372.612 340.224 372.843L340.873 373.603C341.313 373.228 341.585 372.757 341.649 372.2L340.655 372.087ZM340.224 372.842C339.962 373.066 339.676 373.17 339.348 373.17V374.17C339.92 374.17 340.434 373.977 340.872 373.604L340.224 372.842ZM345.245 379.693L344.752 379.609L344.751 379.611L345.245 379.693ZM344.194 386V386.5H344.617L344.687 386.082L344.194 386ZM341.175 386L340.682 385.918L340.585 386.5H341.175V386ZM342.993 375.091V374.591H342.57L342.5 375.009L342.993 375.091ZM345.87 375.091L346.363 375.171L346.457 374.591H345.87V375.091ZM345.557 377.016L345.064 376.935L344.969 377.516H345.557V377.016ZM345.678 377.016V377.516H345.976L346.118 377.253L345.678 377.016ZM347.141 375.503L346.889 375.071L346.888 375.072L347.141 375.503ZM351.203 375.446L350.93 375.864L350.932 375.866L351.203 375.446ZM352.283 376.859L351.81 377.021L351.811 377.024L352.283 376.859ZM352.39 379.054L352.883 379.137L352.883 379.136L352.39 379.054ZM351.225 386V386.5H351.648L351.718 386.083L351.225 386ZM348.199 386L347.706 385.917L347.609 386.5H348.199V386ZM349.272 379.594L349.765 379.676L349.765 379.674L349.272 379.594ZM349.016 378.031L348.611 378.325L348.615 378.33L349.016 378.031ZM346.566 377.726L346.337 377.281H346.337L346.566 377.726ZM345.706 378.493L345.295 378.209L345.294 378.21L345.706 378.493ZM344.751 379.611L343.7 385.918L344.687 386.082L345.738 379.775L344.751 379.611ZM344.194 385.5H341.175V386.5H344.194V385.5ZM341.668 386.082L343.486 375.173L342.5 375.009L340.682 385.918L341.668 386.082ZM342.993 375.591H345.87V374.591H342.993V375.591ZM345.376 375.011L345.064 376.935L346.051 377.096L346.363 375.171L345.376 375.011ZM345.557 377.516H345.678V376.516H345.557V377.516ZM346.118 377.253C346.42 376.695 346.843 376.257 347.394 375.934L346.888 375.072C346.18 375.487 345.627 376.058 345.238 376.778L346.118 377.253ZM347.393 375.935C347.943 375.615 348.577 375.449 349.307 375.449V374.449C348.418 374.449 347.608 374.652 346.889 375.071L347.393 375.935ZM349.307 375.449C349.992 375.449 350.523 375.598 350.93 375.864L351.477 375.028C350.871 374.631 350.138 374.449 349.307 374.449V375.449ZM350.932 375.866C351.343 376.132 351.635 376.509 351.81 377.021L352.756 376.698C352.514 375.988 352.087 375.423 351.475 375.026L350.932 375.866ZM351.811 377.024C351.989 377.533 352.029 378.176 351.896 378.972L352.883 379.136C353.034 378.228 353.004 377.407 352.755 376.695L351.811 377.024ZM351.896 378.971L350.732 385.917L351.718 386.083L352.883 379.137L351.896 378.971ZM351.225 385.5H348.199V386.5H351.225V385.5ZM348.692 386.083L349.765 379.676L348.779 379.511L347.706 385.917L348.692 386.083ZM349.765 379.674C349.886 378.933 349.808 378.256 349.417 377.732L348.615 378.33C348.783 378.555 348.875 378.919 348.778 379.513L349.765 379.674ZM349.421 377.738C349.024 377.191 348.405 376.963 347.688 376.963V377.963C348.192 377.963 348.458 378.114 348.611 378.325L349.421 377.738ZM347.688 376.963C347.206 376.963 346.753 377.067 346.337 377.281L346.794 378.171C347.06 378.034 347.355 377.963 347.688 377.963V376.963ZM346.337 377.281C345.918 377.496 345.57 377.809 345.295 378.209L346.118 378.777C346.306 378.504 346.531 378.306 346.794 378.171L346.337 377.281ZM345.294 378.21C345.019 378.611 344.842 379.082 344.752 379.609L345.737 379.778C345.808 379.367 345.939 379.038 346.119 378.776L345.294 378.21ZM356.855 382.861L356.362 382.779L356.116 384.259L357.201 383.222L356.855 382.861ZM357.459 379.232V378.732H357.035L356.966 379.149L357.459 379.232ZM357.899 379.232V379.732H358.104L358.25 379.587L357.899 379.232ZM362.097 375.091V374.591H361.891L361.745 374.735L362.097 375.091ZM365.57 375.091L365.92 375.448L366.794 374.591H365.57V375.091ZM359.973 380.574V381.074H360.177L360.323 380.931L359.973 380.574ZM359.249 380.574V380.074H359.048L358.903 380.212L359.249 380.574ZM353.595 386L353.102 385.918L353.005 386.5H353.595V386ZM356.01 371.455V370.955H355.586L355.517 371.373L356.01 371.455ZM359.036 371.455L359.529 371.536L359.625 370.955H359.036V371.455ZM356.621 386V386.5H357.045L357.114 386.082L356.621 386ZM360.413 386L359.968 386.227L360.107 386.5H360.413V386ZM357.999 381.249L357.663 380.878L357.38 381.134L357.553 381.475L357.999 381.249ZM360.364 379.111L360.807 378.88L360.508 378.306L360.028 378.74L360.364 379.111ZM363.957 386V386.5H364.782L364.401 385.769L363.957 386ZM357.348 382.943L357.952 379.314L356.966 379.149L356.362 382.779L357.348 382.943ZM357.459 379.732H357.899V378.732H357.459V379.732ZM358.25 379.587L362.448 375.447L361.745 374.735L357.548 378.876L358.25 379.587ZM362.097 375.591H365.57V374.591H362.097V375.591ZM365.22 374.734L359.623 380.217L360.323 380.931L365.92 375.448L365.22 374.734ZM359.973 380.074H359.249V381.074H359.973V380.074ZM358.903 380.212L356.51 382.499L357.201 383.222L359.594 380.935L358.903 380.212ZM354.088 386.082L356.503 371.536L355.517 371.373L353.102 385.918L354.088 386.082ZM356.01 371.955H359.036V370.955H356.01V371.955ZM358.542 371.373L356.127 385.918L357.114 386.082L359.529 371.536L358.542 371.373ZM356.621 385.5H353.595V386.5H356.621V385.5ZM360.859 385.773L358.444 381.022L357.553 381.475L359.968 386.227L360.859 385.773ZM358.334 381.62L360.699 379.482L360.028 378.74L357.663 380.878L358.334 381.62ZM359.92 379.342L363.514 386.231L364.401 385.769L360.807 378.88L359.92 379.342ZM363.957 385.5H360.413V386.5H363.957V385.5Z" fill="black" fill-opacity="0.22"/>
</g>
</g>
<defs>
<filter id="filter0_d_81_6" x="371" y="93.0533" width="266" height="331.893" filterUnits="userSpaceOnUse" color-interpolation-filters="sRGB">
<feFlood flood-opacity="0" result="BackgroundImageFix"/>
<feColorMatrix in="SourceAlpha" type="matrix" values="0 0 0 0 0 0 0 0 0 0 0 0 0 0 0 0 0 0 127 0" result="hardAlpha"/>
<feOffset dy="4"/>
<feGaussianBlur stdDeviation="2"/>
<feComposite in2="hardAlpha" operator="out"/>
<feColorMatrix type="matrix" values="0 0 0 0 0 0 0 0 0 0 0 0 0 0 0 0 0 0 0.72 0"/>
<feBlend mode="normal" in2="BackgroundImageFix" result="effect1_dropShadow_81_6"/>
<feBlend mode="normal" in="SourceGraphic" in2="effect1_dropShadow_81_6" result="shape"/>
</filter>
<filter id="filter1_d_81_6" x="52" y="13.0533" width="266" height="331.893" filterUnits="userSpaceOnUse" color-interpolation-filters="sRGB">
<feFlood flood-opacity="0" result="BackgroundImageFix"/>
<feColorMatrix in="SourceAlpha" type="matrix" values="0 0 0 0 0 0 0 0 0 0 0 0 0 0 0 0 0 0 127 0" result="hardAlpha"/>
<feOffset dy="4"/>
<feGaussianBlur stdDeviation="2"/>
<feComposite in2="hardAlpha" operator="out"/>
<feColorMatrix type="matrix" values="0 0 0 0 0 0 0 0 0 0 0 0 0 0 0 0 0 0 0.72 0"/>
<feBlend mode="normal" in2="BackgroundImageFix" result="effect1_dropShadow_81_6"/>
<feBlend mode="normal" in="SourceGraphic" in2="effect1_dropShadow_81_6" result="shape"/>
</filter>
<filter id="filter2_d_81_6" x="371" y="76.0533" width="266" height="331.893" filterUnits="userSpaceOnUse" color-interpolation-filters="sRGB">
<feFlood flood-opacity="0" result="BackgroundImageFix"/>
<feColorMatrix in="SourceAlpha" type="matrix" values="0 0 0 0 0 0 0 0 0 0 0 0 0 0 0 0 0 0 127 0" result="hardAlpha"/>
<feOffset dy="4"/>
<feGaussianBlur stdDeviation="2"/>
<feComposite in2="hardAlpha" operator="out"/>
<feColorMatrix type="matrix" values="0 0 0 0 0 0 0 0 0 0 0 0 0 0 0 0 0 0 0.72 0"/>
<feBlend mode="normal" in2="BackgroundImageFix" result="effect1_dropShadow_81_6"/>
<feBlend mode="normal" in="SourceGraphic" in2="effect1_dropShadow_81_6" result="shape"/>
</filter>
<filter id="filter3_d_81_6" x="52" y="30.0533" width="266" height="331.893" filterUnits="userSpaceOnUse" color-interpolation-filters="sRGB">
<feFlood flood-opacity="0" result="BackgroundImageFix"/>
<feColorMatrix in="SourceAlpha" type="matrix" values="0 0 0 0 0 0 0 0 0 0 0 0 0 0 0 0 0 0 127 0" result="hardAlpha"/>
<feOffset dy="4"/>
<feGaussianBlur stdDeviation="2"/>
<feComposite in2="hardAlpha" operator="out"/>
<feColorMatrix type="matrix" values="0 0 0 0 0 0 0 0 0 0 0 0 0 0 0 0 0 0 0.72 0"/>
<feBlend mode="normal" in2="BackgroundImageFix" result="effect1_dropShadow_81_6"/>
<feBlend mode="normal" in="SourceGraphic" in2="effect1_dropShadow_81_6" result="shape"/>
</filter>
<filter id="filter4_d_81_6" x="248.355" y="370.616" width="118.214" height="18.5895" filterUnits="userSpaceOnUse" color-interpolation-filters="sRGB">
<feFlood flood-opacity="0" result="BackgroundImageFix"/>
<feColorMatrix in="SourceAlpha" type="matrix" values="0 0 0 0 0 0 0 0 0 0 0 0 0 0 0 0 0 0 127 0" result="hardAlpha"/>
<feOffset dy="2"/>
<feGaussianBlur stdDeviation="0.5"/>
<feComposite in2="hardAlpha" operator="out"/>
<feColorMatrix type="matrix" values="0 0 0 0 0 0 0 0 0 0 0 0 0 0 0 0 0 0 0.25 0"/>
<feBlend mode="normal" in2="BackgroundImageFix" result="effect1_dropShadow_81_6"/>
<feBlend mode="normal" in="SourceGraphic" in2="effect1_dropShadow_81_6" result="shape"/>
</filter>
<clipPath id="clip0_81_6">
<rect width="668" height="463" fill="white"/>
</clipPath>
</defs>
</svg>
